{"accessors":[{"bufferView":3,"componentType":5126,"count":3160,"max":[0.2828426957130432,0.24079883098602295,0.9830048680305481],"min":[-0.3108272850513458,-0.45788460969924927,-1.0392444133758545],"type":"VEC3"},{"bufferView":3,"byteOffset":37920,"componentType":5126,"count":3160,"max":[1,0.9996365904808044,0.9999250173568726],"min":[-1,-0.9999839663505554,-0.9995079040527344],"type":"VEC3"},{"bufferView":2,"componentType":5126,"count":3160,"max":[5.4058098793029785,6.24167013168335],"min":[-5.439089775085449,-4.664669990539551],"type":"VEC2"},{"bufferView":1,"componentType":5125,"count":4128,"type":"SCALAR"},{"bufferView":3,"byteOffset":75840,"componentType":5126,"count":897,"max":[-0.10685727745294571,0.05609900876879692,0.42127662897109985],"min":[-0.275447279214859,-0.5729653239250183,0.1664331704378128],"type":"VEC3"},{"bufferView":3,"byteOffset":86604,"componentType":5126,"count":897,"max":[0.9942708611488342,0.9963707327842712,0.9971112012863159],"min":[-0.9950990676879883,-0.9979026317596436,-0.9990401864051819],"type":"VEC3"},{"bufferView":2,"byteOffset":25280,"componentType":5126,"count":897,"max":[3.429349899291992,2.7297699451446533],"min":[-5.02947998046875,-3.1331899166107178],"type":"VEC2"},{"bufferView":1,"byteOffset":16512,"componentType":5125,"count":996,"type":"SCALAR"},{"bufferView":5,"componentType":5126,"count":24,"max":[3.801500082015991,3.777360439300537,1.0090701580047607,0,3.787926435470581,2.223153829574585,3.609027862548828,0,2.6006805896759033,3.799673080444336,3.774393081665039,0,1.3347100019454956,1.7532999515533447,2.7009799480438232,1],"min":[-3.7322747707366943,-3.787928819656372,-1.3103771209716797,0,-3.680191993713379,-3.800053119659424,-3.799673080444336,0,-0.744219183921814,-3.6081154346466064,-3.800053119659424,0,-1.5567699670791626,-3.0695600509643555,-2.1249001026153564,1],"type":"MAT4"},{"bufferView":0,"componentType":5123,"count":3160,"type":"VEC4"},{"bufferView":4,"componentType":5126,"count":3160,"max":[1,0.5,0.3129420280456543,0.061173904687166214],"min":[0.3129420280456543,0,0,0],"type":"VEC4"},{"bufferView":0,"byteOffset":25280,"componentType":5123,"count":897,"type":"VEC4"},{"bufferView":4,"byteOffset":50560,"componentType":5126,"count":897,"max":[1,0.1343490332365036,0,0],"min":[0.8656509518623352,0,0,0],"type":"VEC4"},{"bufferView":6,"componentType":5126,"count":22,"max":[1.6666699647903442],"min":[0],"type":"SCALAR"},{"bufferView":7,"componentType":5126,"count":22,"max":[0.0000065325598370691296,0.0016582343960180879,0.4332480728626251],"min":[-0.0000032060299872682663,0,0],"type":"VEC3"},{"bufferView":6,"byteOffset":88,"componentType":5126,"count":1,"max":[0],"min":[0],"type":"SCALAR"},{"bufferView":8,"componentType":5126,"count":1,"max":[0.7069550156593323,0.7027695775032043,0,0.07955827564001083],"min":[0.7069550156593323,0.7027695775032043,0,0.07955827564001083],"type":"VEC4"},{"bufferView":6,"byteOffset":92,"componentType":5126,"count":22,"max":[1.6666699647903442],"min":[0],"type":"SCALAR"},{"bufferView":8,"byteOffset":16,"componentType":5126,"count":22,"max":[0.5802533030509949,0.49005618691444397,0.514001727104187,0.5720071792602539],"min":[0.48075926303863525,0.42126089334487915,0.4617230296134949,0.45822247862815857],"type":"VEC4"},{"bufferView":6,"byteOffset":180,"componentType":5126,"count":22,"max":[1.6666699647903442],"min":[0],"type":"SCALAR"},{"bufferView":8,"byteOffset":368,"componentType":5126,"count":22,"max":[0.3534421920776367,0.07941794395446777,-0.007478395942598581,0.9969900250434875],"min":[0.005402373615652323,0.07694415748119354,-0.009471407160162926,0.9320526123046875],"type":"VEC4"},{"bufferView":6,"byteOffset":268,"componentType":5126,"count":22,"max":[1.6666699647903442],"min":[0],"type":"SCALAR"},{"bufferView":8,"byteOffset":720,"componentType":5126,"count":22,"max":[-0.20178942382335663,-0.042194608598947525,0.006282443646341562,0.9784979224205017],"min":[-0.4010552763938904,-0.042721159756183624,-0.0005044253193773329,0.9150427579879761],"type":"VEC4"},{"bufferView":6,"byteOffset":356,"componentType":5126,"count":22,"max":[1.6666699647903442],"min":[0],"type":"SCALAR"},{"bufferView":7,"byteOffset":264,"componentType":5126,"count":22,"max":[0.00000606551338933059,0.0016505431849509478,0.4332515597343445],"min":[-0.000004586318027577363,0,0],"type":"VEC3"},{"bufferView":6,"byteOffset":444,"componentType":5126,"count":1,"max":[0],"min":[0],"type":"SCALAR"},{"bufferView":8,"byteOffset":1072,"componentType":5126,"count":1,"max":[0,0.05971912667155266,0.7069931030273438,0.7046945691108704],"min":[0,0.05971912667155266,0.7069931030273438,0.7046945691108704],"type":"VEC4"},{"bufferView":6,"byteOffset":448,"componentType":5126,"count":22,"max":[1.6666699647903442],"min":[0],"type":"SCALAR"},{"bufferView":8,"byteOffset":1088,"componentType":5126,"count":22,"max":[-0.4608672857284546,-0.4177679121494293,0.5005030035972595,0.6021208763122559],"min":[-0.5655475854873657,-0.4935217499732971,0.44010064005851746,0.4928504526615143],"type":"VEC4"},{"bufferView":6,"byteOffset":536,"componentType":5126,"count":22,"max":[1.6666699647903442],"min":[0],"type":"SCALAR"},{"bufferView":8,"byteOffset":1440,"componentType":5126,"count":22,"max":[-0.00008837146015139297,0.9957150220870972,-0.008724062703549862,0.10015031695365906],"min":[-0.013634170405566692,0.9290605187416077,-0.3560749590396881,0.09104461967945099],"type":"VEC4"},{"bufferView":6,"byteOffset":624,"componentType":5126,"count":22,"max":[1.6666699647903442],"min":[0],"type":"SCALAR"},{"bufferView":8,"byteOffset":1792,"componentType":5126,"count":22,"max":[-0.2103191316127777,0.037265948951244354,-0.032949049025774,0.9761652946472168],"min":[-0.40910622477531433,0.03207987919449806,-0.03841090202331543,0.9113082885742188],"type":"VEC4"},{"bufferView":6,"byteOffset":712,"componentType":5126,"count":22,"max":[1.6666699647903442],"min":[0],"type":"SCALAR"},{"bufferView":7,"byteOffset":528,"componentType":5126,"count":22,"max":[0,0.001650111167691648,0.433247834444046],"min":[0,-0.000049975998990703374,0],"type":"VEC3"},{"bufferView":6,"byteOffset":800,"componentType":5126,"count":1,"max":[0],"min":[0],"type":"SCALAR"},{"bufferView":8,"byteOffset":2144,"componentType":5126,"count":1,"max":[0.6959974765777588,0.009306948632001877,-0.00909743458032608,0.7179328203201294],"min":[0.6959974765777588,0.009306948632001877,-0.00909743458032608,0.7179328203201294],"type":"VEC4"},{"bufferView":6,"byteOffset":804,"componentType":5126,"count":33,"max":[1.6666699647903442],"min":[0],"type":"SCALAR"},{"bufferView":8,"byteOffset":2160,"componentType":5126,"count":33,"max":[-0.048582520335912704,0,0,0.9988346695899963],"min":[-0.11835075914859772,0,0,0.992972731590271],"type":"VEC4"},{"bufferView":6,"byteOffset":936,"componentType":5126,"count":37,"max":[1.6666699647903442],"min":[0],"type":"SCALAR"},{"bufferView":8,"byteOffset":2688,"componentType":5126,"count":37,"max":[0.9383018612861633,0,0.10340836644172668,0.4065995514392853],"min":[0.9136064648628235,-0.07126066088676453,0,0.3459704518318176],"type":"VEC4"},{"bufferView":6,"byteOffset":1084,"componentType":5126,"count":1,"max":[0],"min":[0],"type":"SCALAR"},{"bufferView":8,"byteOffset":3280,"componentType":5126,"count":1,"max":[0.4724343717098236,0.4434032440185547,0.6514307260513306,-0.39476239681243896],"min":[0.4724343717098236,0.4434032440185547,0.6514307260513306,-0.39476239681243896],"type":"VEC4"},{"bufferView":6,"byteOffset":1088,"componentType":5126,"count":41,"max":[1.6666699647903442],"min":[0],"type":"SCALAR"},{"bufferView":8,"byteOffset":3296,"componentType":5126,"count":41,"max":[0.5986975431442261,0.7757480144500732,-0.09384138137102127,-0.23370280861854553],"min":[0.26494333148002625,0.5210294723510742,-0.5892419815063477,-0.5577836036682129],"type":"VEC4"},{"bufferView":6,"byteOffset":1252,"componentType":5126,"count":41,"max":[1.6666699647903442],"min":[0],"type":"SCALAR"},{"bufferView":8,"byteOffset":3952,"componentType":5126,"count":41,"max":[-0.02597617730498314,0.9252989292144775,-0.11163502931594849,0.015059204772114754],"min":[-0.49667635560035706,0.5291092395782471,-0.8481433987617493,-0.23893238604068756],"type":"VEC4"},{"bufferView":6,"byteOffset":1416,"componentType":5126,"count":41,"max":[1.6666699647903442],"min":[0],"type":"SCALAR"},{"bufferView":8,"byteOffset":4608,"componentType":5126,"count":41,"max":[-0.09364688396453857,0.03740142658352852,0.0015908338828012347,0.995494544506073],"min":[-0.16270697116851807,0.005570144858211279,-0.18689826130867004,0.96840500831604],"type":"VEC4"},{"bufferView":6,"byteOffset":1580,"componentType":5126,"count":1,"max":[0],"min":[0],"type":"SCALAR"},{"bufferView":8,"byteOffset":5264,"componentType":5126,"count":1,"max":[0.05981229618191719,0.9402354955673218,0.31898894906044006,-0.10308104753494263],"min":[0.05981229618191719,0.9402354955673218,0.31898894906044006,-0.10308104753494263],"type":"VEC4"},{"bufferView":6,"byteOffset":1584,"componentType":5126,"count":22,"max":[1.6666699647903442],"min":[0],"type":"SCALAR"},{"bufferView":8,"byteOffset":5280,"componentType":5126,"count":22,"max":[-0.3871963918209076,0.5664998888969421,-0.37635672092437744,0.6225017309188843],"min":[-0.46210893988609314,0.5072351694107056,-0.45915040373802185,0.5641981363296509],"type":"VEC4"},{"bufferView":6,"byteOffset":1672,"componentType":5126,"count":1,"max":[0],"min":[0],"type":"SCALAR"},{"bufferView":8,"byteOffset":5632,"componentType":5126,"count":1,"max":[0.3996240198612213,-0.5396636724472046,-0.611874520778656,0.41793355345726013],"min":[0.3996240198612213,-0.5396636724472046,-0.611874520778656,0.41793355345726013],"type":"VEC4"},{"bufferView":6,"byteOffset":1676,"componentType":5126,"count":1,"max":[0],"min":[0],"type":"SCALAR"},{"bufferView":8,"byteOffset":5648,"componentType":5126,"count":1,"max":[-0.5040978789329529,0.37916454672813416,0.6212571263313293,0.4649292230606079],"min":[-0.5040978789329529,0.37916454672813416,0.6212571263313293,0.4649292230606079],"type":"VEC4"},{"bufferView":6,"byteOffset":1680,"componentType":5126,"count":41,"max":[1.6666699647903442],"min":[0],"type":"SCALAR"},{"bufferView":8,"byteOffset":5664,"componentType":5126,"count":41,"max":[-0.2778502106666565,0.6494993567466736,-0.4506516456604004,0.6269562244415283],"min":[-0.4037589132785797,0.4660802185535431,-0.5590119361877441,0.460489958524704],"type":"VEC4"},{"bufferView":6,"byteOffset":1844,"componentType":5126,"count":41,"max":[1.6666699647903442],"min":[0],"type":"SCALAR"},{"bufferView":8,"byteOffset":6320,"componentType":5126,"count":41,"max":[0.8734816908836365,0.00687052495777607,0.003273555776104331,-0.48680540919303894],"min":[0.7369827032089233,0.006283176131546497,0.0017293014097958803,-0.675876259803772],"type":"VEC4"},{"bufferView":6,"byteOffset":2008,"componentType":5126,"count":41,"max":[1.6666699647903442],"min":[0],"type":"SCALAR"},{"bufferView":8,"byteOffset":6976,"componentType":5126,"count":41,"max":[0.043577853590250015,-0.03962337598204613,0.3621004521846771,0.9976593255996704],"min":[-0.0024630562402307987,-0.05875196307897568,-0.48056524991989136,0.8749821186065674],"type":"VEC4"},{"bufferView":6,"byteOffset":2172,"componentType":5126,"count":1,"max":[0],"min":[0],"type":"SCALAR"},{"bufferView":7,"byteOffset":792,"componentType":5126,"count":1,"max":[-0.19552764296531677,-0.027718177065253258,-0.23381304740905762],"min":[-0.19552764296531677,-0.027718177065253258,-0.23381304740905762],"type":"VEC3"},{"bufferView":6,"byteOffset":2176,"componentType":5126,"count":1,"max":[0],"min":[0],"type":"SCALAR"},{"bufferView":8,"byteOffset":7632,"componentType":5126,"count":1,"max":[-0.10519729554653168,0.02984529361128807,-0.3278893530368805,0.9383642673492432],"min":[-0.10519729554653168,0.02984529361128807,-0.3278893530368805,0.9383642673492432],"type":"VEC4"}],"animations":[{"channels":[{"sampler":0,"target":{"node":10,"path":"translation"}},{"sampler":1,"target":{"node":10,"path":"rotation"}},{"sampler":2,"target":{"node":11,"path":"rotation"}},{"sampler":3,"target":{"node":12,"path":"rotation"}},{"sampler":4,"target":{"node":13,"path":"rotation"}},{"sampler":5,"target":{"node":14,"path":"translation"}},{"sampler":6,"target":{"node":14,"path":"rotation"}},{"sampler":7,"target":{"node":15,"path":"rotation"}},{"sampler":8,"target":{"node":16,"path":"rotation"}},{"sampler":9,"target":{"node":17,"path":"rotation"}},{"sampler":10,"target":{"node":18,"path":"translation"}},{"sampler":11,"target":{"node":18,"path":"rotation"}},{"sampler":12,"target":{"node":19,"path":"rotation"}},{"sampler":13,"target":{"node":20,"path":"rotation"}},{"sampler":14,"target":{"node":21,"path":"rotation"}},{"sampler":15,"target":{"node":22,"path":"rotation"}},{"sampler":16,"target":{"node":23,"path":"rotation"}},{"sampler":17,"target":{"node":24,"path":"rotation"}},{"sampler":18,"target":{"node":25,"path":"rotation"}},{"sampler":19,"target":{"node":26,"path":"rotation"}},{"sampler":20,"target":{"node":27,"path":"rotation"}},{"sampler":21,"target":{"node":28,"path":"rotation"}},{"sampler":22,"target":{"node":29,"path":"rotation"}},{"sampler":23,"target":{"node":30,"path":"rotation"}},{"sampler":24,"target":{"node":31,"path":"rotation"}},{"sampler":25,"target":{"node":32,"path":"translation"}},{"sampler":26,"target":{"node":32,"path":"rotation"}}],"name":"ArmatureAction","samplers":[{"input":13,"interpolation":"LINEAR","output":14},{"input":15,"interpolation":"LINEAR","output":16},{"input":17,"interpolation":"LINEAR","output":18},{"input":19,"interpolation":"LINEAR","output":20},{"input":21,"interpolation":"LINEAR","output":22},{"input":23,"interpolation":"LINEAR","output":24},{"input":25,"interpolation":"LINEAR","output":26},{"input":27,"interpolation":"LINEAR","output":28},{"input":29,"interpolation":"LINEAR","output":30},{"input":31,"interpolation":"LINEAR","output":32},{"input":33,"interpolation":"LINEAR","output":34},{"input":35,"interpolation":"LINEAR","output":36},{"input":37,"interpolation":"LINEAR","output":38},{"input":39,"interpolation":"LINEAR","output":40},{"input":41,"interpolation":"LINEAR","output":42},{"input":43,"interpolation":"LINEAR","output":44},{"input":45,"interpolation":"LINEAR","output":46},{"input":47,"interpolation":"LINEAR","output":48},{"input":49,"interpolation":"LINEAR","output":50},{"input":51,"interpolation":"LINEAR","output":52},{"input":53,"interpolation":"LINEAR","output":54},{"input":55,"interpolation":"LINEAR","output":56},{"input":57,"interpolation":"LINEAR","output":58},{"input":59,"interpolation":"LINEAR","output":60},{"input":61,"interpolation":"LINEAR","output":62},{"input":63,"interpolation":"LINEAR","output":64},{"input":65,"interpolation":"LINEAR","output":66}]}],"asset":{"extras":{"author":"SmeagolGollum (https://sketchfab.com/SmeagolGollum)","license":"CC-BY-SA-4.0 (http://creativecommons.org/licenses/by-sa/4.0/)","source":"https://sketchfab.com/3d-models/b1-battle-droid-5e098a79422b476388f59b189c5bbd4e","title":"B1 Battle Droid"},"generator":"Sketchfab-12.68.0","version":"2.0"},"bufferViews":[{"buffer":0,"byteLength":32456,"byteStride":8,"name":"shortBufferViews","target":34962},{"buffer":0,"byteLength":20496,"byteOffset":32456,"name":"floatBufferViews","target":34963},{"buffer":0,"byteLength":32456,"byteOffset":52952,"byteStride":8,"name":"floatBufferViews","target":34962},{"buffer":0,"byteLength":97368,"byteOffset":85408,"byteStride":12,"name":"floatBufferViews","target":34962},{"buffer":0,"byteLength":64912,"byteOffset":182776,"byteStride":16,"name":"floatBufferViews","target":34962},{"buffer":0,"byteLength":1536,"byteOffset":247688,"name":"floatBufferViews"},{"buffer":0,"byteLength":2180,"byteOffset":249224,"name":"floatBufferViews"},{"buffer":0,"byteLength":804,"byteOffset":251404,"byteStride":12,"name":"floatBufferViews"},{"buffer":0,"byteLength":7648,"byteOffset":252208,"byteStride":16,"name":"floatBufferViews"}],"buffers":[{"byteLength":259856,"uri":"data:application/octet-stream;base64,"}],"images":[{"uri":"data:application/octet-stream;base64,"},{"uri":"data:application/octet-stream;base64,"}],"materials":[{"doubleSided":true,"name":"01___Def","pbrMetallicRoughness":{"baseColorTexture":{"index":0},"metallicFactor":0,"roughnessFactor":0.6}},{"doubleSided":true,"name":"07___Def","pbrMetallicRoughness":{"baseColorTexture":{"index":1},"metallicFactor":0,"roughnessFactor":0.6}}],"meshes":[{"name":"Mesh51.001","primitives":[{"attributes":{"JOINTS_0":9,"NORMAL":1,"POSITION":0,"TEXCOORD_0":2,"WEIGHTS_0":10},"indices":3,"material":0,"mode":4}]},{"name":"Mesh51.001","primitives":[{"attributes":{"JOINTS_0":11,"NORMAL":5,"POSITION":4,"TEXCOORD_0":6,"WEIGHTS_0":12},"indices":7,"material":1,"mode":4}]}],"nodes":[{"children":[1],"matrix":[1.7700716257095337,0,0,0,0,3.930348548196813e-16,-1.7700716257095337,0,0,1.7700716257095337,3.930348548196813e-16,0,0,0,0,1],"name":"Sketchfab_model"},{"children":[2,4,6,8],"name":"Root"},{"children":[3],"matrix":[-0.29086000000000006,0.9551700000000001,-0.05519000000000001,0,-0.7711,-0.19988000000000003,0.6045200000000001,0,0.5663900000000001,0.21839000000000003,0.7946700000000001,0,4.076250000000001,1.00545,5.903860000000001,1],"name":"Lamp"},{"name":"Lamp"},{"children":[5],"matrix":[-0.29086000000000006,0.9551700000000001,-0.05519000000000001,0,-0.7711,-0.19988000000000003,0.6045200000000001,0,0.5663900000000001,0.21839000000000003,0.7946700000000001,0,-7.836060000000001,1.00545,5.903860000000001,1],"name":"Lamp.001"},{"name":"Lamp.001"},{"children":[7],"matrix":[-0.29086000000000006,0.9551700000000001,-0.05519000000000001,0,-0.7711,-0.19988000000000003,0.6045200000000001,0,0.5663900000000001,0.21839000000000003,0.7946700000000001,0,2.52689,-7.275340000000001,5.903860000000001,1],"name":"Lamp.002"},{"name":"Lamp.002"},{"children":[9,34,35,33],"matrix":[0.26305,0,0,0,0,0.26305,0.0010000000000000002,0,0,-0.0010000000000000002,0.26305,0,0.12156000000000002,0.021450000000000007,0.9893599999999999,1],"name":"Armature"},{"children":[10,14,18],"name":"Armature_rootJoint"},{"children":[11],"name":"Bone.011_Armature","rotation":[0.7069550156593323,0.7027695775032043,0,0.07955827564001083],"scale":[0.9999952912330627,0.999996542930603,1.0000011920928955],"translation":[0,0,0]},{"children":[12],"name":"Bone.013_Armature","rotation":[0.4807894229888916,0.42126089334487915,0.5139927864074707,0.5720071792602539],"scale":[0.9999954700469971,1.0000038146972656,0.9999966025352478],"translation":[0,0.4135800004005432,0]},{"children":[13],"name":"Bone.015_Armature","rotation":[0.3534421920776367,0.07898284494876862,-0.00945745874196291,0.9320680499076843],"scale":[0.9999949932098389,1.0000027418136597,0.9999992251396179],"translation":[0,1.9798599481582642,0]},{"name":"Bone.016_Armature","rotation":[-0.4010552763938904,-0.04266132414340973,-0.0004649511829484254,0.9150598049163818],"scale":[0.9999983310699463,1.0000011920928955,1.0000033378601074],"translation":[0,1.6203800439834595,0]},{"children":[15],"name":"Bone.012_Armature","rotation":[0,0.05971912667155266,0.7069931030273438,0.7046945691108704],"scale":[1.0000030994415283,0.9999980926513672,1.0000050067901611],"translation":[0,0,0]},{"children":[16],"name":"Bone.014_Armature","rotation":[-0.4608965218067169,-0.4177679121494293,0.5004945993423462,0.6021208763122559],"scale":[0.9999969005584717,0.999998927116394,1.0000042915344238],"translation":[0,0.45910999178886414,0]},{"children":[17],"name":"Bone.017_Armature","rotation":[-0.00010261651186738163,0.9290751218795776,-0.3560749590396881,0.10015031695365906],"scale":[0.9999966621398926,0.9999980926513672,1.0000027418136597],"translation":[0,1.9503200054168701,0]},{"name":"Bone.018_Armature","rotation":[-0.4091062843799591,0.03207988291978836,-0.03295157104730606,0.9113272428512573],"scale":[0.999999463558197,0.9999954700469971,1.0000070333480835],"translation":[0,1.665310025215149,0]},{"children":[19,21,28],"name":"Bone.023_Armature","rotation":[0.6960532069206238,0,0,0.7179902791976929],"scale":[1,1.0000011920928955,1.0000011920928955],"translation":[0,0,0]},{"children":[20],"name":"Bone.002_Armature","rotation":[-0.11372214555740356,0,0,0.9935126900672913],"scale":[1,1.0000056028366089,1.0000056028366089],"translation":[0,2.23511004447937,0]},{"name":"Bone.004_Armature","rotation":[0.9136064648628235,0,0,0.4065995514392853],"scale":[1,0.9999946355819702,0.9999946355819702],"translation":[0,1.002959966659546,0.0002500000118743628]},{"children":[22],"name":"Bone.003_Armature","rotation":[0.4724343717098236,0.4434032440185547,0.6514307260513306,-0.39476239681243896],"scale":[0.999992311000824,1.0000033378601074,0.9999994039535522],"translation":[0,2.23511004447937,0]},{"children":[23],"name":"Bone.008_Armature","rotation":[0.5744685530662537,0.7740014791488647,-0.10729414224624634,-0.24371212720870972],"scale":[1.0000042915344238,0.9999982118606567,0.9999942183494568],"translation":[0,0.6330900192260742,0]},{"children":[24],"name":"Bone.009_Armature","rotation":[-0.49667635560035706,0.8231630325317383,-0.1701059639453888,-0.2162848860025406],"scale":[1.0000038146972656,0.9999938011169434,1.000001072883606],"translation":[0,1.2352700233459473,0]},{"children":[25,27],"name":"Bone.010_Armature","rotation":[-0.09364688396453857,0.005570144858211279,-0.013779527507722378,0.995494544506073],"scale":[1.000001072883606,0.999996542930603,1.0000050067901611],"translation":[0,0.9498100280761719,0]},{"children":[26],"name":"Bone.019_Armature","rotation":[0.05981229618191719,0.9402354955673218,0.31898894906044006,-0.10308104753494263],"scale":[0.9999954700469971,1.0000035762786865,0.9999997019767761],"translation":[0,0.4176799952983856,0]},{"name":"Bone.020_Armature","rotation":[-0.48709574341773987,0.48330408334732056,-0.4870131313800812,0.5403453707695007],"scale":[0.999997079372406,1.0000007152557373,1.0000039339065552],"translation":[0,0.2788900136947632,0]},{"name":"Bone.022_Armature","rotation":[0.2740188241004944,-0.6130678057670593,-0.5075059533119202,0.5399067401885986],"scale":[1.0000057220458984,1.0000015497207642,0.9999951720237732],"translation":[-0.06655000150203705,0.3441300094127655,0.033070001751184464]},{"children":[29],"name":"Bone.005_Armature","rotation":[-0.5040978789329529,0.37916454672813416,0.6212571263313293,0.4649292230606079],"scale":[1.0000028610229492,0.9999958276748657,1.0000032186508179],"translation":[0,2.23511004447937,0]},{"children":[30],"name":"Bone.006_Armature","rotation":[-0.2778502404689789,0.46608027815818787,-0.5590119957923889,0.6269562840461731],"scale":[0.9999969005584717,1.0000001192092896,1.000004768371582],"translation":[0,0.74795001745224,0]},{"children":[31],"name":"Bone.007_Armature","rotation":[0.873481810092926,0.006283177062869072,0.0032735562417656183,-0.4868054687976837],"scale":[1.0000041723251343,0.9999958276748657,0.9999974966049194],"translation":[0,1.218209981918335,0]},{"children":[32],"name":"Bone.021_Armature","rotation":[0.017995106056332588,0.0010858774185180664,0.3369712233543396,0.9413423538208008],"scale":[1.0000040531158447,0.999995768070221,0.9999982118606567],"translation":[0,0.9636600017547607,0]},{"name":"Bone.025_Armature","rotation":[-0.06428387761116028,0.015456533059477806,-0.3299415111541748,0.9416832327842712],"scale":[1.0000017881393433,0.9999956488609314,1.0000028610229492],"translation":[-0.16739000380039215,0.009209999814629555,-0.3252899944782257]},{"matrix":[3.8015,0,0,0,0,3.8014699999999997,-0.014520000000000002,0,0,0.014520000000000002,3.8014699999999997,0,-0.4621,-0.09591000000000002,-3.7607000000000004,1],"name":"Mesh51.001"},{"mesh":0,"name":"Mesh51.001_0","skin":0},{"mesh":1,"name":"Mesh51.001_1","skin":0}],"samplers":[{"magFilter":9729,"minFilter":9987,"wrapS":10497,"wrapT":10497}],"scene":0,"scenes":[{"name":"Sketchfab_Scene","nodes":[0]}],"skins":[{"inverseBindMatrices":8,"joints":[9,10,11,12,13,14,15,16,17,18,19,20,21,22,23,24,25,26,27,28,29,30,31,32],"skeleton":9}],"textures":[{"sampler":0,"source":0},{"sampler":0,"source":1}]}