{"accessors":[{"bufferView":2,"componentType":5126,"count":2494,"max":[3.6912100315093994,1.3502999544143677,1.153249979019165],"min":[-3.6912100315093994,-0.539870023727417,-1.153249979019165],"type":"VEC3"},{"bufferView":2,"byteOffset":29928,"componentType":5126,"count":2494,"max":[1,1,1],"min":[-1,-1,-1],"type":"VEC3"},{"bufferView":1,"componentType":5126,"count":2494,"max":[3,3],"min":[-2,-2],"type":"VEC2"},{"bufferView":0,"componentType":5125,"count":4416,"type":"SCALAR"},{"bufferView":2,"byteOffset":59856,"componentType":5126,"count":342,"max":[0.13600000739097595,0.05452999845147133,0.09570000320672989],"min":[-0.13600000739097595,-0.05452999845147133,-0.09570000320672989],"type":"VEC3"},{"bufferView":2,"byteOffset":63960,"componentType":5126,"count":342,"max":[1,0.9657251834869385,0.9286482930183411],"min":[-1,-0.9657251834869385,-0.9286482930183411],"type":"VEC3"},{"bufferView":1,"byteOffset":19952,"componentType":5126,"count":342,"max":[2,2],"min":[-1,-1],"type":"VEC2"},{"bufferView":0,"byteOffset":17664,"componentType":5125,"count":912,"type":"SCALAR"},{"bufferView":2,"byteOffset":68064,"componentType":5126,"count":2714,"max":[0.386570006608963,0.22102999687194824,0.07310999929904938],"min":[-0.386570006608963,-0.08442000299692154,-0.07310999929904938],"type":"VEC3"},{"bufferView":2,"byteOffset":100632,"componentType":5126,"count":2714,"max":[1,1,1],"min":[-1,-1,-1],"type":"VEC3"},{"bufferView":1,"byteOffset":22688,"componentType":5126,"count":2714,"max":[3,3],"min":[-2,-2],"type":"VEC2"},{"bufferView":0,"byteOffset":21312,"componentType":5125,"count":6762,"type":"SCALAR"},{"bufferView":2,"byteOffset":133200,"componentType":5126,"count":224,"max":[0.3015500009059906,0.03051000088453293,0.03051000088453293],"min":[-0.3015500009059906,-0.03051000088453293,-0.03051000088453293],"type":"VEC3"},{"bufferView":2,"byteOffset":135888,"componentType":5126,"count":224,"max":[0,1,1],"min":[0,-1,-1],"type":"VEC3"},{"bufferView":1,"byteOffset":44400,"componentType":5126,"count":224,"max":[2.722090005874634,2.654400110244751],"min":[-2,-0.9965900182723999],"type":"VEC2"},{"bufferView":0,"byteOffset":48360,"componentType":5125,"count":576,"type":"SCALAR"},{"bufferView":2,"byteOffset":138576,"componentType":5126,"count":80,"max":[0.09576000273227692,-0.025049999356269836,0.007139999885112047],"min":[-0.09576000273227692,-0.041930001229047775,-0.007139999885112047],"type":"VEC3"},{"bufferView":2,"byteOffset":139536,"componentType":5126,"count":80,"max":[1,0,1],"min":[-1,0,-1],"type":"VEC3"},{"bufferView":1,"byteOffset":46192,"componentType":5126,"count":80,"max":[2,2],"min":[-1,-1],"type":"VEC2"},{"bufferView":0,"byteOffset":50664,"componentType":5125,"count":192,"type":"SCALAR"},{"bufferView":2,"byteOffset":140496,"componentType":5126,"count":32,"max":[0.09576000273227692,-0.025049999356269836,0.007139999885112047],"min":[-0.09576000273227692,-0.025049999356269836,-0.007139999885112047],"type":"VEC3"},{"bufferView":2,"byteOffset":140880,"componentType":5126,"count":32,"max":[0,1,0],"min":[0,1,0],"type":"VEC3"},{"bufferView":1,"byteOffset":46832,"componentType":5126,"count":32,"max":[1.4506399631500244,0.24455000460147858],"min":[0.12436000257730484,-1],"type":"VEC2"},{"bufferView":0,"byteOffset":51432,"componentType":5125,"count":84,"type":"SCALAR"},{"bufferView":2,"byteOffset":141264,"componentType":5126,"count":556,"max":[0.007430000230669975,0.015359999611973763,0.07659000158309937],"min":[-0.007430000230669975,-0.1846500039100647,-0.007430000230669975],"type":"VEC3"},{"bufferView":2,"byteOffset":147936,"componentType":5126,"count":556,"max":[1,1,1],"min":[-1,-1,-1],"type":"VEC3"},{"bufferView":1,"byteOffset":47088,"componentType":5126,"count":556,"max":[2,2],"min":[-1,-1],"type":"VEC2"},{"bufferView":0,"byteOffset":51768,"componentType":5125,"count":906,"type":"SCALAR"},{"bufferView":2,"byteOffset":154608,"componentType":5126,"count":320,"max":[0.04774999991059303,0.013939999975264072,0.04774999991059303],"min":[-0.04774999991059303,0.0004199999966658652,-0.04774999991059303],"type":"VEC3"},{"bufferView":2,"byteOffset":158448,"componentType":5126,"count":320,"max":[1,0.9487787485122681,1],"min":[-1,0,-1],"type":"VEC3"},{"bufferView":1,"byteOffset":51536,"componentType":5126,"count":320,"max":[2,2],"min":[-1,-1],"type":"VEC2"},{"bufferView":0,"byteOffset":55392,"componentType":5125,"count":480,"type":"SCALAR"},{"bufferView":2,"byteOffset":162288,"componentType":5126,"count":1572,"max":[0.1349399983882904,0.11014000326395035,0.10249999910593033],"min":[-0.1349399983882904,-0.1063700020313263,-0.1246500015258789],"type":"VEC3"},{"bufferView":2,"byteOffset":181152,"componentType":5126,"count":1572,"max":[1,0.9999448657035828,1],"min":[-1,-1,-1],"type":"VEC3"},{"bufferView":1,"byteOffset":54096,"componentType":5126,"count":1572,"max":[3.2384700775146484,4.248869895935059],"min":[-2.476210117340088,-3.2488698959350586],"type":"VEC2"},{"bufferView":0,"byteOffset":57312,"componentType":5125,"count":5808,"type":"SCALAR"},{"bufferView":2,"byteOffset":200016,"componentType":5126,"count":6603,"max":[0.19020000100135803,0.14767999947071075,0.13773000240325928],"min":[-0.19020000100135803,-0.10704000294208527,-0.13675999641418457],"type":"VEC3"},{"bufferView":2,"byteOffset":279252,"componentType":5126,"count":6603,"max":[1,1,1],"min":[-1,-1,-1],"type":"VEC3"},{"bufferView":1,"byteOffset":66672,"componentType":5126,"count":6603,"max":[8,8],"min":[-7,-7],"type":"VEC2"},{"bufferView":0,"byteOffset":80544,"componentType":5125,"count":17226,"type":"SCALAR"},{"bufferView":2,"byteOffset":358488,"componentType":5126,"count":104,"max":[0.04323999956250191,0.07361000031232834,0.13199999928474426],"min":[-0.04323999956250191,-0.02208000048995018,0.11063999682664871],"type":"VEC3"},{"bufferView":2,"byteOffset":359736,"componentType":5126,"count":104,"max":[0.38136711716651917,0.4527851641178131,0.9951873421669006],"min":[-0.38136711716651917,-0.20524194836616516,0.8809773921966553],"type":"VEC3"},{"bufferView":1,"byteOffset":119496,"componentType":5126,"count":104,"max":[6.160620212554932,4.723840236663818],"min":[2.483330011367798,0.3743700087070465],"type":"VEC2"},{"bufferView":0,"byteOffset":149448,"componentType":5125,"count":312,"type":"SCALAR"},{"bufferView":2,"byteOffset":360984,"componentType":5126,"count":1100,"max":[0.059870000928640366,0.14208999276161194,0.10380999743938446],"min":[-0.059870000928640366,-0.15039999783039093,-0.10995999723672867],"type":"VEC3"},{"bufferView":2,"byteOffset":374184,"componentType":5126,"count":1100,"max":[1,1,1],"min":[-1,-1,-1],"type":"VEC3"},{"bufferView":1,"byteOffset":120328,"componentType":5126,"count":1100,"max":[7.902550220489502,7.883580207824707],"min":[-6.979189872741699,-6.254930019378662],"type":"VEC2"},{"bufferView":0,"byteOffset":150696,"componentType":5125,"count":2448,"type":"SCALAR"},{"bufferView":2,"byteOffset":387384,"componentType":5126,"count":10159,"max":[0.37985000014305115,0.2519400119781494,0.298550009727478],"min":[-0.37985000014305115,-0.5759699940681458,-0.298550009727478],"type":"VEC3"},{"bufferView":2,"byteOffset":509292,"componentType":5126,"count":10159,"max":[1,1,1],"min":[-1,-1,-1],"type":"VEC3"},{"bufferView":1,"byteOffset":129128,"componentType":5126,"count":10159,"max":[5.5,5.5],"min":[-4.5,-4.5],"type":"VEC2"},{"bufferView":0,"byteOffset":160488,"componentType":5125,"count":18858,"type":"SCALAR"},{"bufferView":2,"byteOffset":631200,"componentType":5126,"count":92,"max":[0.34887000918388367,0.23176999390125275,0.2875699996948242],"min":[-0.34887000918388367,-0.45124998688697815,-0.2875699996948242],"type":"VEC3"},{"bufferView":2,"byteOffset":632304,"componentType":5126,"count":92,"max":[1,0,0.6644296646118164],"min":[-1,0,-0.6644296646118164],"type":"VEC3"},{"bufferView":1,"byteOffset":210400,"componentType":5126,"count":92,"max":[15.511699676513672,15.511699676513672],"min":[-14.511699676513672,-14.511699676513672],"type":"VEC2"},{"bufferView":0,"byteOffset":235920,"componentType":5125,"count":144,"type":"SCALAR"},{"bufferView":2,"byteOffset":633408,"componentType":5126,"count":16,"max":[0.330130010843277,0.07026000320911407,0.04997999966144562],"min":[-0.330130010843277,0.04732000082731247,-0.04997999966144562],"type":"VEC3"},{"bufferView":2,"byteOffset":633600,"componentType":5126,"count":16,"max":[0.7546302080154419,0.5682401061058044,0.32808008790016174],"min":[-0.7546302080154419,0.5682401061058044,-0.32808008790016174],"type":"VEC3"},{"bufferView":1,"byteOffset":211136,"componentType":5126,"count":16,"max":[0.7735099792480469,-1.0441700220108032],"min":[0.44179001450538635,-2],"type":"VEC2"},{"bufferView":0,"byteOffset":236496,"componentType":5125,"count":24,"type":"SCALAR"},{"bufferView":2,"byteOffset":633792,"componentType":5126,"count":80,"max":[0.07692000269889832,-0.21432000398635864,0.011490000411868095],"min":[-0.07692000269889832,-0.24642999470233917,-0.14473000168800354],"type":"VEC3"},{"bufferView":2,"byteOffset":634752,"componentType":5126,"count":80,"max":[0.521655797958374,-0.8420793414115906,0.5135779976844788],"min":[-0.521655797958374,-1,-0.5135779976844788],"type":"VEC3"},{"bufferView":1,"byteOffset":211264,"componentType":5126,"count":80,"max":[1.8835400342941284,2.0040900707244873],"min":[-1.5,0.38165000081062317],"type":"VEC2"},{"bufferView":0,"byteOffset":236592,"componentType":5125,"count":186,"type":"SCALAR"},{"bufferView":2,"byteOffset":635712,"componentType":5126,"count":644,"max":[0.08376000076532364,-0.20979000627994537,0.017139999195933342],"min":[-0.08376000076532364,-0.2476699948310852,-0.1503800004720688],"type":"VEC3"},{"bufferView":2,"byteOffset":643440,"componentType":5126,"count":644,"max":[1,0.4920104146003723,1],"min":[-1,-1,-1],"type":"VEC3"},{"bufferView":1,"byteOffset":211904,"componentType":5126,"count":644,"max":[2.5,2.5],"min":[-1.5,-1.5],"type":"VEC2"},{"bufferView":0,"byteOffset":237336,"componentType":5125,"count":1416,"type":"SCALAR"}],"asset":{"extras":{"author":"Daniel (https://sketchfab.com/DanielAndersson)","license":"CC-BY-4.0 (http://creativecommons.org/licenses/by/4.0/)","source":"https://sketchfab.com/3d-models/star-wars-tie-interceptor-80171ec2930b4949836bcf24d9694c41","title":"Star Wars: TIE Interceptor"},"generator":"Sketchfab-12.67.0","version":"2.0"},"bufferViews":[{"buffer":0,"byteLength":243000,"name":"floatBufferViews","target":34963},{"buffer":0,"byteLength":217056,"byteOffset":243000,"byteStride":8,"name":"floatBufferViews","target":34962},{"buffer":0,"byteLength":651168,"byteOffset":460056,"byteStride":12,"name":"floatBufferViews","target":34962}],"buffers":[{"byteLength":1111224,"uri":"data:application/octet-stream;base64,"}],"images":[{"uri":"data:application/octet-stream;base64,"},{"uri":"data:application/octet-stream;base64,"},{"uri":"data:application/octet-stream;base64,"},{"uri":"data:application/octet-stream;base64,"}],"materials":[{"doubleSided":true,"name":"ScratchedMetal","pbrMetallicRoughness":{"baseColorTexture":{"index":0},"metallicRoughnessTexture":{"index":1},"roughnessFactor":0.6}},{"doubleSided":true,"name":"ScratchedMetalDark","pbrMetallicRoughness":{"baseColorFactor":[0.1,0.1,0.1,1],"baseColorTexture":{"index":0},"metallicRoughnessTexture":{"index":1},"roughnessFactor":0.6}},{"doubleSided":true,"emissiveFactor":[1,0.10434423599999985,0.3104192580000003],"name":"RedEngineGlow","pbrMetallicRoughness":{"baseColorFactor":[1,0,0,1],"metallicFactor":0,"roughnessFactor":0.6}},{"doubleSided":true,"name":"ReflectiveGlass","pbrMetallicRoughness":{"baseColorFactor":[0,0,0,1],"metallicFactor":0,"roughnessFactor":0.3}},{"doubleSided":true,"name":"TieWingMesh","pbrMetallicRoughness":{"baseColorTexture":{"index":2},"metallicRoughnessTexture":{"index":3},"roughnessFactor":0.8}},{"doubleSided":true,"name":"Black","pbrMetallicRoughness":{"baseColorFactor":[0,0,0,1],"metallicFactor":0,"roughnessFactor":0}}],"meshes":[{"name":"ArmGreebles_0","primitives":[{"attributes":{"NORMAL":1,"POSITION":0,"TEXCOORD_0":2},"indices":3,"material":0,"mode":4}]},{"name":"ArmPlates_0","primitives":[{"attributes":{"NORMAL":5,"POSITION":4,"TEXCOORD_0":6},"indices":7,"material":0,"mode":4}]},{"name":"Arms_0","primitives":[{"attributes":{"NORMAL":9,"POSITION":8,"TEXCOORD_0":10},"indices":11,"material":0,"mode":4}]},{"name":"Arms_1","primitives":[{"attributes":{"NORMAL":13,"POSITION":12,"TEXCOORD_0":14},"indices":15,"material":1,"mode":4}]},{"name":"Engines_0","primitives":[{"attributes":{"NORMAL":17,"POSITION":16,"TEXCOORD_0":18},"indices":19,"material":0,"mode":4}]},{"name":"Engines_1","primitives":[{"attributes":{"NORMAL":21,"POSITION":20,"TEXCOORD_0":22},"indices":23,"material":2,"mode":4}]},{"name":"CockpitGreebles_0","primitives":[{"attributes":{"NORMAL":25,"POSITION":24,"TEXCOORD_0":26},"indices":27,"material":0,"mode":4}]},{"name":"EngineGreebles_0","primitives":[{"attributes":{"NORMAL":29,"POSITION":28,"TEXCOORD_0":30},"indices":31,"material":0,"mode":4}]},{"name":"HullPlates_0","primitives":[{"attributes":{"NORMAL":33,"POSITION":32,"TEXCOORD_0":34},"indices":35,"material":0,"mode":4}]},{"name":"MainHull_0","primitives":[{"attributes":{"NORMAL":37,"POSITION":36,"TEXCOORD_0":38},"indices":39,"material":0,"mode":4}]},{"name":"MainHull_1","primitives":[{"attributes":{"NORMAL":41,"POSITION":40,"TEXCOORD_0":42},"indices":43,"material":3,"mode":4}]},{"name":"MainHull_2","primitives":[{"attributes":{"NORMAL":45,"POSITION":44,"TEXCOORD_0":46},"indices":47,"material":1,"mode":4}]},{"name":"Wings_0","primitives":[{"attributes":{"NORMAL":49,"POSITION":48,"TEXCOORD_0":50},"indices":51,"material":0,"mode":4}]},{"name":"Wings_1","primitives":[{"attributes":{"NORMAL":53,"POSITION":52,"TEXCOORD_0":54},"indices":55,"material":4,"mode":4}]},{"name":"Wings_2","primitives":[{"attributes":{"NORMAL":57,"POSITION":56,"TEXCOORD_0":58},"indices":59,"material":5,"mode":4}]},{"name":"Window_0","primitives":[{"attributes":{"NORMAL":61,"POSITION":60,"TEXCOORD_0":62},"indices":63,"material":3,"mode":4}]},{"name":"Window_1","primitives":[{"attributes":{"NORMAL":65,"POSITION":64,"TEXCOORD_0":66},"indices":67,"material":1,"mode":4}]}],"nodes":[{"children":[1],"matrix":[10,0,0,0,0,2.220446049250313e-15,-10,0,0,10,2.220446049250313e-15,0,0,0,0,1],"name":"Sketchfab_model"},{"children":[2],"name":"Root"},{"children":[3,5,7,10,13,15,17,19,23,27],"name":"TieInterceptor"},{"children":[4],"matrix":[0.08193000000000002,0,0,0,0,0.08193000000000002,0,0,0,0,0.08193000000000002,0,0,0,0,1],"name":"ArmGreebles"},{"mesh":0,"name":"ArmGreebles_0"},{"children":[6],"name":"ArmPlates"},{"mesh":1,"name":"ArmPlates_0"},{"children":[8,9],"name":"Arms"},{"mesh":2,"name":"Arms_0"},{"mesh":3,"name":"Arms_1"},{"children":[11,12],"matrix":[1,0,0,0,0,1,0,0,0,0,1,0,0,0.13590000000000002,0,1],"name":"Engines"},{"mesh":4,"name":"Engines_0"},{"mesh":5,"name":"Engines_1"},{"children":[14],"matrix":[1,0,0,0,0,1,0,0,0,0,1,0,0,0.10986000000000001,0.06662000000000003,1],"name":"CockpitGreebles"},{"mesh":6,"name":"CockpitGreebles_0"},{"children":[16],"matrix":[1,0,0,0,0,1,0,0,0,0,1,0,0,0.13590000000000002,0,1],"name":"EngineGreebles"},{"mesh":7,"name":"EngineGreebles_0"},{"children":[18],"name":"HullPlates"},{"mesh":8,"name":"HullPlates_0"},{"children":[20,21,22],"name":"MainHull"},{"mesh":9,"name":"MainHull_0"},{"mesh":10,"name":"MainHull_1"},{"mesh":11,"name":"MainHull_2"},{"children":[24,25,26],"name":"Wings"},{"mesh":12,"name":"Wings_0"},{"mesh":13,"name":"Wings_1"},{"mesh":14,"name":"Wings_2"},{"children":[28,29],"matrix":[1,0,0,0,0,1,0,0,0,0,1,0,0,0.10986000000000001,0.06662000000000003,1],"name":"Window"},{"mesh":15,"name":"Window_0"},{"mesh":16,"name":"Window_1"}],"samplers":[{"magFilter":9729,"minFilter":9987,"wrapS":10497,"wrapT":10497}],"scene":0,"scenes":[{"name":"Sketchfab_Scene","nodes":[0]}],"textures":[{"sampler":0,"source":0},{"sampler":0,"source":1},{"sampler":0,"source":2},{"sampler":0,"source":3}]}