{"accessors":[{"bufferView":2,"componentType":5126,"count":2184,"max":[29.134981155395508,6.841894149780273,65.33094787597656],"min":[-28.96495819091797,-6.940397262573242,-0.0001315716654062271],"type":"VEC3"},{"bufferView":2,"byteOffset":26208,"componentType":5126,"count":2184,"max":[0.9993972182273865,0.9993236660957336,0.9954709410667419],"min":[-0.9994046688079834,-0.9999944567680359,-0.999666690826416],"type":"VEC3"},{"bufferView":1,"componentType":5126,"count":2184,"max":[0.9847000241279602,0.9908999800682068],"min":[0.007899999618530273,0.012400000356137753],"type":"VEC2"},{"bufferView":0,"componentType":5125,"count":8607,"type":"SCALAR"},{"bufferView":2,"byteOffset":52416,"componentType":5126,"count":643,"max":[5.033929347991943,5.162678241729736,74.43700408935547],"min":[-4.830170631408691,-5.980071544647217,62.54170608520508],"type":"VEC3"},{"bufferView":2,"byteOffset":60132,"componentType":5126,"count":643,"max":[1,0.9999931454658508,0.9993938207626343],"min":[-1,-0.9995452761650085,-0.9998472332954407],"type":"VEC3"},{"bufferView":1,"byteOffset":17472,"componentType":5126,"count":643,"max":[0.9901999831199646,0.9779000282287598],"min":[0.00989999994635582,0.02319999970495701],"type":"VEC2"},{"bufferView":0,"byteOffset":34428,"componentType":5125,"count":3210,"type":"SCALAR"},{"bufferView":2,"byteOffset":67848,"componentType":5126,"count":64,"max":[5.725136756896973,3.341409921646118,62.60474395751953],"min":[-5.725722789764404,-0.8640232682228088,61.33446502685547],"type":"VEC3"},{"bufferView":2,"byteOffset":68616,"componentType":5126,"count":64,"max":[0.9427627325057983,0.9475163817405701,0.9075494408607483],"min":[-0.9427691698074341,-0.9869394898414612,-0.5649747252464294],"type":"VEC3"},{"bufferView":1,"byteOffset":22616,"componentType":5126,"count":64,"max":[0.5148000121116638,-0.666700005531311],"min":[0.47429999709129333,-0.7562000155448914],"type":"VEC2"},{"bufferView":0,"byteOffset":47268,"componentType":5125,"count":552,"type":"SCALAR"},{"bufferView":3,"componentType":5126,"count":1,"max":[1,0,0,0,0,1,0,0,0,0,1,0,0,0,0,1],"min":[1,0,0,0,0,1,0,0,0,0,1,0,0,0,0,1],"type":"MAT4"}],"asset":{"extras":{"author":"reizer (https://sketchfab.com/reizer)","license":"CC-BY-4.0 (http://creativecommons.org/licenses/by/4.0/)","source":"https://sketchfab.com/3d-models/star-wars-clone-trooper-9b0d260e63174ac8873cb56919cc76f9","title":"Star Wars  Clone Trooper"},"generator":"Sketchfab-12.64.0","version":"2.0"},"bufferViews":[{"buffer":0,"byteLength":49476,"name":"floatBufferViews","target":34963},{"buffer":0,"byteLength":23128,"byteOffset":49476,"byteStride":8,"name":"floatBufferViews","target":34962},{"buffer":0,"byteLength":69384,"byteOffset":72604,"byteStride":12,"name":"floatBufferViews","target":34962},{"buffer":0,"byteLength":64,"byteOffset":141988,"name":"floatBufferViews"}],"buffers":[{"byteLength":142052,"uri":"data:application/octet-stream;base64,"}],"extensionsUsed":["KHR_materials_unlit"],"images":[{"uri":"data:application/octet-stream;base64,"},{"uri":"data:application/octet-stream;base64,"},{"uri":"data:application/octet-stream;base64,"}],"materials":[{"doubleSided":true,"extensions":{"KHR_materials_unlit":{}},"name":"unassigned_trooper","pbrMetallicRoughness":{"baseColorTexture":{"index":0},"metallicFactor":0}},{"doubleSided":true,"extensions":{"KHR_materials_unlit":{}},"name":"unassigned_trooper_helmet","pbrMetallicRoughness":{"baseColorTexture":{"index":1},"metallicFactor":0}},{"doubleSided":true,"extensions":{"KHR_materials_unlit":{}},"name":"clonetrooper_commander_d","pbrMetallicRoughness":{"baseColorTexture":{"index":2},"metallicFactor":0}}],"meshes":[{"name":"clone_trp.012_0","primitives":[{"attributes":{"NORMAL":1,"POSITION":0,"TEXCOORD_0":2},"indices":3,"material":0,"mode":4}]},{"name":"clone_trp.012_1","primitives":[{"attributes":{"NORMAL":5,"POSITION":4,"TEXCOORD_0":6},"indices":7,"material":1,"mode":4}]},{"name":"clone_trp.012_2","primitives":[{"attributes":{"NORMAL":9,"POSITION":8,"TEXCOORD_0":10},"indices":11,"material":2,"mode":4}]}],"nodes":[{"children":[1],"matrix":[1,0,0,0,0,2.220446049250313e-16,-1,0,0,1,2.220446049250313e-16,0,0,0,0,1],"name":"Sketchfab_model"},{"children":[2],"name":"Root"},{"children":[3,4],"name":"unassigned_trooper_reference_skeleton"},{"name":"unassigned_trooper_reference_skeleton_rootJoint"},{"children":[5,6,7],"name":"clone_trp.012"},{"mesh":0,"name":"clone_trp.012_0"},{"mesh":1,"name":"clone_trp.012_1"},{"mesh":2,"name":"clone_trp.012_2"}],"samplers":[{"magFilter":9729,"minFilter":9987,"wrapS":10497,"wrapT":10497}],"scene":0,"scenes":[{"name":"Sketchfab_Scene","nodes":[0]}],"skins":[{"inverseBindMatrices":12,"joints":[3],"skeleton":3}],"textures":[{"sampler":0,"source":0},{"sampler":0,"source":1},{"sampler":0,"source":2}]}